<?xml version="1.0" encoding="iso-8859-1"?>
<!-- Generator: Adobe Illustrator 18.0.0, SVG Export Plug-In . SVG Version: 6.00 Build 0)  -->
<!DOCTYPE svg PUBLIC "-//W3C//DTD SVG 1.1//EN" "http://www.w3.org/Graphics/SVG/1.1/DTD/svg11.dtd">
<svg version="1.1" xmlns="http://www.w3.org/2000/svg" xmlns:xlink="http://www.w3.org/1999/xlink" x="0px" y="0px"
	 viewBox="0 0 70.8661423 85.045784" style="enable-background:new 0 0 70.8661423 85.045784;" xml:space="preserve">
<symbol  id="Half-N_2" viewBox="-30.0977001 -72.1513977 69.6163025 143.5175934">
	<g id="Vertical_4_">
	</g>
	<g id="flange_7_">
	</g>
	<g id="flange_6_">
		<polyline style="fill:#FFFFFF;stroke:#000000;stroke-linejoin:round;stroke-miterlimit:10;" points="-23.0937996,70.8662033 
			-29.5977001,58.8193016 -29.5977001,-59.6044998 -23.0937996,-71.6513977 		"/>
		<polygon style="fill:#FFFFFF;stroke:#000000;stroke-linejoin:round;stroke-miterlimit:10;" points="39.0186005,-18.3407993 
			-7.0859399,70.8651962 -7.0859399,70.8662033 -23.0937996,70.8662033 -23.0937996,-71.6513977 -7.0859399,-71.6513977 
			-7.0859399,43.9355011 39.0186005,-45.2695007 		"/>
	</g>
</symbol>
<symbol  id="QuarterBar" viewBox="-32.5513763 -5.9786296 26 11.8983498">
	<polyline style="fill:#FFFFFF;stroke:#000000;stroke-miterlimit:10;" points="-7.5513778,-4.9954119 -23.0513783,-4.9954119 
		-23.0513783,5.0045881 -7.5513778,5.0045881 	"/>
	<polygon style="fill:#FFFFFF;stroke:#000000;stroke-linejoin:bevel;stroke-miterlimit:10;" points="-32.0513763,-5.4814501 
		-23.0513783,-4.5214801 -23.0513783,5.4785199 -32.0513763,0.679688 	"/>
	<polygon style="fill:#FFFFFF;" points="-6.5513778,-4.4954119 -21.5513783,-4.4954119 -21.5513783,4.5045881 -6.5513778,4.5045881 
			"/>
	<polygon style="display:none;fill:none;" points="-32.5513763,5.5045881 -6.5513778,5.5045881 -6.5513778,-5.4954119 
		-32.5513763,-5.4954119 	"/>
</symbol>
<g id="legs">
</g>
<g id="dashes">
	<path style="fill:#FFFFFF;" d="M14.1732283,0L11.338583,0C5.0764565,0,0,5.0764565,0,11.338583l0,73.7007828h2.8346457
		c6.2621264,0,11.338583-5.0764542,11.338583-11.3385773V0z"/>
	<path style="fill:#FFFFFF;" d="M70.8661423,0.006411h-2.8346481c-6.2621231,0-11.3385811,5.0764565-11.3385811,11.338583V85.045784
		h2.8346443c6.2621307,0,11.3385849-5.0764618,11.3385849-11.3385849V0.006411z"/>
	<g>
		
			<rect x="30.2043133" y="-6.6370559" transform="matrix(0.7071068 -0.7071068 0.7071068 0.7071068 -10.5011129 34.0683708)" style="fill:#FFFFFF;" width="11.338583" height="72.6944122"/>
		<polygon style="fill:#FFFFFF;" points="64.6879272,77.0217819 56.6929131,85.045784 5.2676225,33.6366577 13.2852106,25.6190681 
					"/>
	</g>
</g>
</svg>
