<?xml version="1.0" encoding="iso-8859-1"?>
<!-- Generator: Adobe Illustrator 18.0.0, SVG Export Plug-In . SVG Version: 6.00 Build 0)  -->
<!DOCTYPE svg PUBLIC "-//W3C//DTD SVG 1.1//EN" "http://www.w3.org/Graphics/SVG/1.1/DTD/svg11.dtd">
<svg version="1.1" xmlns="http://www.w3.org/2000/svg" xmlns:xlink="http://www.w3.org/1999/xlink" x="0px" y="0px"
	 viewBox="0 0 283.4645691 283.4645691" style="enable-background:new 0 0 283.4645691 283.4645691;" xml:space="preserve">
<symbol  id="Half-N_2" viewBox="-30.0977001 -72.1513977 69.6163025 143.5175934">
	<g id="Vertical_4_">
	</g>
	<g id="flange_7_">
	</g>
	<g id="flange_6_">
		<polyline style="fill:#FFFFFF;stroke:#000000;stroke-linejoin:round;stroke-miterlimit:10;" points="-23.0937996,70.8662033 
			-29.5977001,58.8193016 -29.5977001,-59.6044998 -23.0937996,-71.6513977 		"/>
		<polygon style="fill:#FFFFFF;stroke:#000000;stroke-linejoin:round;stroke-miterlimit:10;" points="39.0186005,-18.3407993 
			-7.0859399,70.8651962 -7.0859399,70.8662033 -23.0937996,70.8662033 -23.0937996,-71.6513977 -7.0859399,-71.6513977 
			-7.0859399,43.9355011 39.0186005,-45.2695007 		"/>
	</g>
</symbol>
<symbol  id="QuarterBar" viewBox="-32.5513763 -5.9786296 26 11.8983498">
	<polyline style="fill:#FFFFFF;stroke:#000000;stroke-miterlimit:10;" points="-7.5513778,-4.9954119 -23.0513783,-4.9954119 
		-23.0513783,5.0045881 -7.5513778,5.0045881 	"/>
	<polygon style="fill:#FFFFFF;stroke:#000000;stroke-linejoin:bevel;stroke-miterlimit:10;" points="-32.0513763,-5.4814501 
		-23.0513783,-4.5214801 -23.0513783,5.4785199 -32.0513763,0.679688 	"/>
	<polygon style="fill:#FFFFFF;" points="-6.5513778,-4.4954119 -21.5513783,-4.4954119 -21.5513783,4.5045881 -6.5513778,4.5045881 
			"/>
	<polygon style="display:none;fill:none;" points="-32.5513763,5.5045881 -6.5513778,5.5045881 -6.5513778,-5.4954119 
		-32.5513763,-5.4954119 	"/>
</symbol>
<g id="reference">
</g>
<g id="legs">
	<g>
		<g>
			<defs>
				<rect id="SVGID_1_" x="1.4173263" y="1.4173263" width="280.6299133" height="280.6299133"/>
			</defs>
			<clipPath id="SVGID_2_">
				<use xlink:href="#SVGID_1_"  style="overflow:visible;"/>
			</clipPath>
			<g style="clip-path:url(#SVGID_2_);">
				<defs>
					<rect id="SVGID_3_" x="0.0001206" y="-0.0003678" width="283.4649048" height="283.4649048"/>
				</defs>
				<clipPath id="SVGID_4_">
					<use xlink:href="#SVGID_3_"  style="overflow:visible;"/>
				</clipPath>
				<path style="clip-path:url(#SVGID_4_);fill:#6A91C0;" d="M282.0472412,141.7322845
					c0,77.4939728-62.8209839,140.3149567-140.3149567,140.3149567S1.4173229,219.2262573,1.4173229,141.7322845
					S64.2383041,1.4173229,141.7322845,1.4173229S282.0472412,64.2383041,282.0472412,141.7322845"/>
			</g>
		</g>
	</g>
</g>
<g id="N">
	<g>
		<g>
			<defs>
				<rect id="SVGID_5_" x="51.9122391" y="62.3687401" width="179.6400452" height="158.7270355"/>
			</defs>
			<clipPath id="SVGID_6_">
				<use xlink:href="#SVGID_5_"  style="overflow:visible;"/>
			</clipPath>
			<g style="clip-path:url(#SVGID_6_);">
				<defs>
					<rect id="SVGID_7_" x="51.9122391" y="62.3686905" width="179.6400452" height="158.7270813"/>
				</defs>
				<clipPath id="SVGID_8_">
					<use xlink:href="#SVGID_7_"  style="overflow:visible;"/>
				</clipPath>
				<path style="clip-path:url(#SVGID_8_);fill:#FFFFFF;" d="M77.2928925,81.6483002
					c1.5949326-10.4677277,11.3114319-19.1662216,21.9579697-19.2795639h11.6940002
					c24.2947311,29.6482773,49.9392929,61.2969589,74.2724838,90.9133224
					c4.1833191-22.9972687,8.4047089-45.9859238,12.609314-68.9770355c0.372345-1.9766922,0.6133423-3.9951019,1.2876587-5.9006042
					c3.0028687-8.7541275,11.6056061-15.8666992,20.9534454-16.0356827h11.4845123
					c-8.2103577,45.2244644-24.6384277,136.119751-24.6384277,136.119751s-0.7463226,5.0303192-1.6702118,7.4018402
					c-3.1890564,8.4178009-11.5679932,15.009903-20.6621399,15.2054901h-11.8110199L98.437027,130.0270233
					c-4.0233383,21.9477386-12.0491562,65.84935-12.0491562,65.84935s-1.0683365,8.2430878-2.9513245,11.966507
					c-3.5884018,7.4059448-11.2537384,12.9587555-19.5753899,13.2529449H51.9122391
					C60.3545914,174.6176758,68.8546371,128.130127,77.2928925,81.6483002 M106.3450089,86.6908722
					c-1.1833191,6.3760605-2.3584442,12.7553864-3.4791489,19.1420898
					c24.8540497,30.2472839,49.6283264,60.5633087,74.4791107,90.8151093
					c1.1501617-6.3813782,2.3334808-12.757019,3.4836426-19.1383972
					C155.9970703,147.2398834,131.1994629,116.9381714,106.3450089,86.6908722"/>
			</g>
		</g>
	</g>
</g>
</svg>
