<?xml version="1.0" encoding="iso-8859-1"?>
<!-- Generator: Adobe Illustrator 18.0.0, SVG Export Plug-In . SVG Version: 6.00 Build 0)  -->
<!DOCTYPE svg PUBLIC "-//W3C//DTD SVG 1.1//EN" "http://www.w3.org/Graphics/SVG/1.1/DTD/svg11.dtd">
<svg version="1.1" xmlns="http://www.w3.org/2000/svg" xmlns:xlink="http://www.w3.org/1999/xlink" x="0px" y="0px"
	 viewBox="0 0 283.465 283.465" style="enable-background:new 0 0 283.465 283.465;" xml:space="preserve">
<symbol  id="Half-N_2" viewBox="-30.098 -72.151 69.616 143.518">
	<g id="Vertical_4_">
	</g>
	<g id="flange_7_">
	</g>
	<g id="flange_6_">
		<polyline style="fill:#FFFFFF;stroke:#000000;stroke-linejoin:round;stroke-miterlimit:10;" points="-23.094,70.866 
			-29.598,58.819 -29.598,-59.604 -23.094,-71.651 		"/>
		<polygon style="fill:#FFFFFF;stroke:#000000;stroke-linejoin:round;stroke-miterlimit:10;" points="39.019,-18.341 -7.086,70.865 
			-7.086,70.866 -23.094,70.866 -23.094,-71.651 -7.086,-71.651 -7.086,43.936 39.019,-45.27 		"/>
	</g>
</symbol>
<symbol  id="QuarterBar" viewBox="-32.551 -5.979 26 11.898">
	<polyline style="fill:#FFFFFF;stroke:#000000;stroke-miterlimit:10;" points="-7.551,-4.995 -23.051,-4.995 -23.051,5.005 
		-7.551,5.005 	"/>
	<polygon style="fill:#FFFFFF;stroke:#000000;stroke-linejoin:bevel;stroke-miterlimit:10;" points="-32.051,-5.481 -23.051,-4.521 
		-23.051,5.479 -32.051,0.68 	"/>
	<polygon style="fill:#FFFFFF;" points="-6.551,-4.495 -21.551,-4.495 -21.551,4.505 -6.551,4.505 	"/>
	<polygon style="display:none;fill:none;" points="-32.551,5.505 -6.551,5.505 -6.551,-5.495 -32.551,-5.495 	"/>
</symbol>
<g id="legs">
</g>
<g id="N">
	<circle style="fill:#186C9D;" cx="141.732" cy="141.732" r="141.732"/>
	<g>
		<g>
			<defs>
				
					<rect id="SVGID_1_" x="75.049" y="62.031" transform="matrix(-0.9659 -0.2588 0.2588 -0.9659 241.9521 315.3182)" width="133.367" height="159.403"/>
			</defs>
			<clipPath id="SVGID_2_">
				<use xlink:href="#SVGID_1_"  style="overflow:visible;"/>
			</clipPath>
			<g style="clip-path:url(#SVGID_2_);">
				<defs>
					
						<rect id="SVGID_3_" x="9.477" y="12.642" transform="matrix(-0.9659 -0.2588 0.2588 -0.9659 242.1227 322.8303)" width="265.669" height="265.669"/>
				</defs>
				<clipPath id="SVGID_4_">
					<use xlink:href="#SVGID_3_"  style="overflow:visible;"/>
				</clipPath>
				<g style="clip-path:url(#SVGID_4_);">
					<defs>
						
							<rect id="SVGID_5_" x="75.049" y="62.03" transform="matrix(-0.9659 -0.2588 0.2588 -0.9659 241.9523 315.3177)" width="133.367" height="159.404"/>
					</defs>
					<clipPath id="SVGID_6_">
						<use xlink:href="#SVGID_5_"  style="overflow:visible;"/>
					</clipPath>
					<g style="clip-path:url(#SVGID_6_);">
						<defs>
							
								<rect id="SVGID_7_" x="75.049" y="62.03" transform="matrix(-0.9659 -0.2588 0.2588 -0.9659 241.9523 315.3177)" width="133.367" height="159.404"/>
						</defs>
						<clipPath id="SVGID_8_">
							<use xlink:href="#SVGID_7_"  style="overflow:visible;"/>
						</clipPath>
						<path style="clip-path:url(#SVGID_8_);fill:#FFFFFF;" d="M226.772,82.006l-35.755,133.44
							c-3.042,11.352-14.681,18.072-26.015,15.035l-5.142-1.378l-56.887-97.737l18.418-10.725l46.242,79.457l5.079-18.957
							l-56.878-97.773l18.418-10.725l46.242,79.457l15.122-56.436c3.037-11.334,14.699-18.067,26.033-15.03L226.772,82.006z"/>
						<path style="clip-path:url(#SVGID_8_);fill:#FFFFFF;" d="M121.39,120.641l-18.418,10.725L87.85,187.802
							c-3.037,11.334-14.681,18.072-26.033,15.03l-5.124-1.373l35.76-133.458c3.037-11.334,14.694-18.049,26.029-15.012l5.124,1.373
							l10.646,18.28l-18.418,10.725l-5.089,18.993L121.39,120.641z"/>
					</g>
				</g>
			</g>
		</g>
	</g>
</g>
</svg>
