<?xml version="1.0" encoding="iso-8859-1"?>
<!-- Generator: Adobe Illustrator 18.0.0, SVG Export Plug-In . SVG Version: 6.00 Build 0)  -->
<!DOCTYPE svg PUBLIC "-//W3C//DTD SVG 1.1//EN" "http://www.w3.org/Graphics/SVG/1.1/DTD/svg11.dtd">
<svg version="1.1" id="Layer_1" xmlns="http://www.w3.org/2000/svg" xmlns:xlink="http://www.w3.org/1999/xlink" x="0px" y="0px"
	 viewBox="0 0 283.465 56.693" style="enable-background:new 0 0 283.465 56.693;" xml:space="preserve">
<g>
	<path d="M9.859,22.495c0.726-0.213,1.527-0.458,2.404-0.736c0.875-0.277,1.859-0.534,2.948-0.77
		c1.09-0.234,2.308-0.427,3.654-0.577c1.346-0.149,2.873-0.224,4.583-0.224c5.042,0,8.502,1.453,10.383,4.358
		c1.88,2.906,2.2,6.88,0.961,11.922l-4.358,18.203h-9.55l4.23-17.818c0.256-1.111,0.458-2.189,0.609-3.237
		c0.149-1.047,0.138-1.965-0.032-2.756c-0.171-0.79-0.567-1.432-1.186-1.923c-0.62-0.491-1.57-0.737-2.852-0.737
		c-1.24,0-2.5,0.128-3.782,0.385l-6.217,26.087h-9.55L9.859,22.495z"/>
	<path d="M70.045,40.122c-0.599,2.436-0.77,4.882-0.513,7.339c0.257,2.458,0.748,4.647,1.475,6.57l-8.525,1.218
		c-0.256-0.513-0.492-1.004-0.705-1.475c-0.214-0.47-0.428-1.003-0.641-1.603c-1.197,0.983-2.521,1.795-3.974,2.436
		c-1.453,0.642-3.076,0.962-4.871,0.962c-2.137,0-3.964-0.375-5.48-1.122c-1.517-0.747-2.756-1.751-3.717-3.013
		c-0.961-1.26-1.657-2.733-2.083-4.422c-0.428-1.688-0.641-3.493-0.641-5.416c0-2.949,0.523-5.726,1.57-8.333
		c1.046-2.605,2.5-4.881,4.358-6.826c1.859-1.944,4.048-3.472,6.57-4.583c2.521-1.11,5.256-1.666,8.205-1.666
		c0.385,0,1.058,0.021,2.019,0.063c0.961,0.043,2.061,0.14,3.301,0.289c1.239,0.149,2.542,0.396,3.91,0.736
		c1.367,0.343,2.67,0.812,3.91,1.41L70.045,40.122z M63.379,28.328c-0.556-0.085-1.058-0.149-1.506-0.192
		c-0.449-0.042-0.994-0.063-1.635-0.063c-1.453,0-2.81,0.363-4.07,1.089c-1.261,0.728-2.362,1.678-3.301,2.853
		c-0.94,1.176-1.677,2.532-2.211,4.07c-0.535,1.538-0.801,3.141-0.801,4.808c0,2.051,0.341,3.675,1.025,4.871
		c0.683,1.196,1.944,1.795,3.782,1.795c0.982,0,1.869-0.192,2.66-0.577c0.79-0.385,1.634-1.025,2.532-1.923
		c0.085-1.067,0.224-2.189,0.417-3.365c0.192-1.175,0.395-2.253,0.609-3.237L63.379,28.328z"/>
	<path d="M83.889,22.495c0.726-0.213,1.506-0.458,2.34-0.736c0.833-0.277,1.772-0.534,2.82-0.77
		c1.046-0.234,2.221-0.427,3.525-0.577c1.303-0.149,2.81-0.224,4.519-0.224c2.051,0,3.75,0.256,5.096,0.769
		c1.346,0.513,2.574,1.282,3.686,2.308c1.58-0.897,3.151-1.635,4.711-2.211c1.56-0.577,3.386-0.865,5.48-0.865
		c2.008,0,3.728,0.267,5.16,0.801c1.431,0.535,2.617,1.304,3.557,2.308c0.939,1.004,1.624,2.201,2.051,3.589
		c0.427,1.39,0.641,2.917,0.641,4.583c0,0.77-0.054,1.582-0.161,2.436c-0.107,0.855-0.267,1.71-0.48,2.564l-4.358,18.203h-9.551
		l4.23-17.818c0.128-0.599,0.267-1.271,0.417-2.02c0.149-0.747,0.225-1.484,0.225-2.211c0-1.196-0.278-2.232-0.833-3.109
		c-0.556-0.875-1.646-1.313-3.269-1.313c-0.897,0-1.753,0.16-2.564,0.48c-0.812,0.32-1.539,0.652-2.179,0.993
		c0.085,0.343,0.128,0.663,0.128,0.962c0,0.3,0,0.577,0,0.833c0,0.77-0.054,1.582-0.16,2.436c-0.107,0.855-0.268,1.71-0.48,2.564
		l-4.359,18.203h-9.55l4.23-17.818c0.128-0.599,0.267-1.271,0.417-2.02c0.149-0.747,0.225-1.484,0.225-2.211
		c0-1.196-0.279-2.232-0.833-3.109c-0.556-0.875-1.646-1.313-3.269-1.313c-0.684,0-1.261,0.032-1.73,0.096
		c-0.471,0.064-1.025,0.16-1.667,0.289l-6.217,26.087h-9.55L83.889,22.495z"/>
	<path d="M132.282,41.468c0-2.733,0.48-5.384,1.442-7.947c0.962-2.564,2.318-4.84,4.07-6.827c1.751-1.986,3.877-3.589,6.377-4.807
		c2.5-1.218,5.266-1.827,8.301-1.827c1.496,0,2.885,0.215,4.166,0.642c1.281,0.428,2.404,1.047,3.365,1.858
		c0.961,0.812,1.709,1.806,2.244,2.98c0.533,1.176,0.801,2.511,0.801,4.006c0,2.394-0.535,4.423-1.604,6.09
		c-1.068,1.666-2.553,3.023-4.453,4.069c-1.902,1.048-4.156,1.806-6.764,2.275c-2.605,0.471-5.447,0.705-8.523,0.705
		c0.297,1.795,0.949,3.067,1.955,3.814c1.002,0.748,2.596,1.121,4.773,1.121c1.367,0,2.758-0.117,4.168-0.353
		c1.41-0.234,2.732-0.587,3.973-1.058l0.705,7.499c-1.197,0.471-2.723,0.897-4.582,1.282s-3.879,0.577-6.057,0.577
		c-2.65,0-4.882-0.375-6.698-1.122c-1.817-0.747-3.291-1.763-4.423-3.044c-1.133-1.282-1.955-2.777-2.468-4.487
		C132.538,45.208,132.282,43.391,132.282,41.468z M150.932,27.623c-2.178,0-4.092,0.78-5.736,2.34
		c-1.645,1.561-2.724,3.621-3.236,6.186c2.648-0.086,4.785-0.31,6.41-0.674c1.623-0.362,2.883-0.801,3.781-1.313
		c0.896-0.513,1.494-1.067,1.795-1.667c0.299-0.598,0.447-1.195,0.447-1.794C154.393,28.649,153.241,27.623,150.932,27.623z"/>
	<path d="M166.252,41.212c0-2.905,0.47-5.641,1.41-8.205c0.939-2.563,2.286-4.807,4.038-6.729s3.878-3.439,6.378-4.551
		s5.288-1.667,8.364-1.667c1.923,0,3.643,0.183,5.16,0.545c1.517,0.363,2.895,0.845,4.134,1.442l-3.269,7.436
		c-0.855-0.342-1.741-0.651-2.66-0.93c-0.919-0.277-2.041-0.417-3.365-0.417c-3.204,0-5.727,1.08-7.563,3.237
		c-1.837,2.158-2.756,5.096-2.756,8.813c0,2.179,0.47,3.941,1.41,5.287c0.939,1.347,2.67,2.02,5.192,2.02
		c1.238,0,2.436-0.128,3.589-0.385c1.154-0.256,2.18-0.577,3.077-0.961l0.705,7.627c-1.197,0.471-2.511,0.888-3.942,1.25
		c-1.433,0.362-3.173,0.545-5.224,0.545c-2.65,0-4.894-0.385-6.73-1.154c-1.838-0.769-3.354-1.805-4.551-3.108
		c-1.196-1.303-2.062-2.83-2.596-4.583C166.518,44.973,166.252,43.135,166.252,41.212z"/>
	<path d="M208.748,55.569c-2.265,0-4.229-0.343-5.896-1.025c-1.666-0.684-3.045-1.645-4.134-2.885
		c-1.09-1.238-1.913-2.702-2.468-4.391c-0.556-1.688-0.834-3.558-0.834-5.608c0-2.563,0.417-5.128,1.25-7.691
		c0.834-2.563,2.062-4.871,3.686-6.923c1.624-2.051,3.61-3.728,5.961-5.031c2.35-1.303,5.042-1.955,8.076-1.955
		c2.222,0,4.177,0.343,5.865,1.025c1.688,0.685,3.076,1.646,4.166,2.885c1.09,1.24,1.912,2.703,2.468,4.391
		c0.555,1.688,0.833,3.558,0.833,5.608c0,2.563-0.406,5.128-1.218,7.691c-0.812,2.564-2.009,4.871-3.589,6.923
		c-1.582,2.051-3.558,3.729-5.929,5.031C214.613,54.917,211.867,55.569,208.748,55.569z M213.491,28.136
		c-1.41,0-2.649,0.407-3.717,1.218c-1.069,0.812-1.967,1.838-2.692,3.077c-0.728,1.239-1.271,2.596-1.635,4.07
		c-0.363,1.474-0.545,2.874-0.545,4.198c0,2.179,0.342,3.856,1.026,5.031c0.683,1.176,1.923,1.763,3.717,1.763
		c1.41,0,2.649-0.405,3.718-1.218c1.067-0.812,1.965-1.837,2.692-3.077c0.726-1.238,1.271-2.596,1.635-4.069
		c0.362-1.475,0.544-2.874,0.544-4.198c0-2.18-0.342-3.856-1.025-5.032C216.525,28.724,215.286,28.136,213.491,28.136z"/>
	<path d="M239.77,54.672h-9.486l8.013-33.715h9.55L239.77,54.672z M244.386,16.855c-1.325,0-2.521-0.395-3.589-1.186
		c-1.069-0.791-1.603-1.997-1.603-3.622c0-0.897,0.181-1.741,0.545-2.532c0.362-0.791,0.843-1.474,1.441-2.051
		c0.599-0.577,1.292-1.036,2.083-1.378c0.791-0.342,1.635-0.513,2.532-0.513c1.324,0,2.521,0.396,3.59,1.186
		c1.067,0.792,1.602,1.998,1.602,3.622c0,0.897-0.182,1.742-0.544,2.532c-0.364,0.791-0.845,1.474-1.442,2.051
		c-0.6,0.577-1.293,1.037-2.083,1.378C246.126,16.685,245.283,16.855,244.386,16.855z"/>
	<path d="M256.179,22.495c0.727-0.213,1.527-0.458,2.404-0.736c0.875-0.277,1.858-0.534,2.948-0.77
		c1.089-0.234,2.308-0.427,3.653-0.577c1.346-0.149,2.873-0.224,4.583-0.224c5.041,0,8.503,1.453,10.384,4.358
		c1.88,2.906,2.2,6.88,0.961,11.922l-4.358,18.203h-9.551l4.23-17.818c0.257-1.111,0.459-2.189,0.609-3.237
		c0.149-1.047,0.138-1.965-0.032-2.756c-0.171-0.79-0.566-1.432-1.186-1.923c-0.62-0.491-1.57-0.737-2.853-0.737
		c-1.24,0-2.5,0.128-3.781,0.385l-6.218,26.087h-9.551L256.179,22.495z"/>
</g>
</svg>
