<?xml version="1.0" encoding="iso-8859-1"?>
<!-- Generator: Adobe Illustrator 18.0.0, SVG Export Plug-In . SVG Version: 6.00 Build 0)  -->
<!DOCTYPE svg PUBLIC "-//W3C//DTD SVG 1.1//EN" "http://www.w3.org/Graphics/SVG/1.1/DTD/svg11.dtd">
<svg version="1.1" xmlns="http://www.w3.org/2000/svg" xmlns:xlink="http://www.w3.org/1999/xlink" x="0px" y="0px"
	 viewBox="0 0 141.732 141.732" style="enable-background:new 0 0 141.732 141.732;" xml:space="preserve">
<symbol  id="Half-N_2" viewBox="-30.098 -72.151 69.616 143.518">
	<g id="Vertical_4_">
	</g>
	<g id="flange_7_">
	</g>
	<g id="flange_6_">
		<polyline style="fill:#FFFFFF;stroke:#000000;stroke-linejoin:round;stroke-miterlimit:10;" points="-23.094,70.866 
			-29.598,58.819 -29.598,-59.604 -23.094,-71.651 		"/>
		<polygon style="fill:#FFFFFF;stroke:#000000;stroke-linejoin:round;stroke-miterlimit:10;" points="39.019,-18.341 -7.086,70.865 
			-7.086,70.866 -23.094,70.866 -23.094,-71.651 -7.086,-71.651 -7.086,43.936 39.019,-45.27 		"/>
	</g>
</symbol>
<symbol  id="QuarterBar" viewBox="-32.551 -5.979 26 11.898">
	<polyline style="fill:#FFFFFF;stroke:#000000;stroke-miterlimit:10;" points="-7.551,-4.995 -23.051,-4.995 -23.051,5.005 
		-7.551,5.005 	"/>
	<polygon style="fill:#FFFFFF;stroke:#000000;stroke-linejoin:bevel;stroke-miterlimit:10;" points="-32.051,-5.481 -23.051,-4.521 
		-23.051,5.479 -32.051,0.68 	"/>
	<polygon style="fill:#FFFFFF;" points="-6.551,-4.495 -21.551,-4.495 -21.551,4.505 -6.551,4.505 	"/>
	<polygon style="display:none;fill:none;" points="-32.551,5.505 -6.551,5.505 -6.551,-5.495 -32.551,-5.495 	"/>
</symbol>
<g id="legs">
</g>
<g id="N">
	<path style="fill:#7CA3CC;" d="M105.34,26.499h-2.835c-6.262,0-11.339,5.076-11.339,11.339v73.701h2.835
		c6.262,0,11.339-5.076,11.339-11.339V26.499z"/>
	
		<rect x="63.782" y="45.475" transform="matrix(0.7071 -0.7071 0.7071 0.7071 -37.5148 73.0748)" style="fill:#C3D3DB;" width="11.339" height="72.694"/>
	<path style="fill:#C3D3DB;" d="M48.647,26.493h-2.835c-6.262,0-11.339,5.076-11.339,11.339v73.701h2.835
		c6.262,0,11.339-5.076,11.339-11.339V26.493z"/>
	<path style="fill:#E6E6E6;" d="M34.474,44.276v67.256h0c3.914,0,7.087-3.173,7.087-7.087V44.527L34.474,44.276z"/>
	<path style="fill:#E6E6E6;" d="M48.647,26.499h-2.835c-6.262,0-11.339,5.076-11.339,11.339v57.79h2.835
		c6.262,0,11.339-5.076,11.339-11.339V26.499z"/>
	<path style="fill:#C3D3DB;" d="M48.648,26.457h-1.286c-3.203,0-5.8,2.597-5.8,5.8v68.656c0,0.71,0.576,1.286,1.286,1.286h0
		c3.204,0,5.8-2.597,5.8-5.8V26.457z"/>
	<path style="fill:#7CA3CC;" d="M82.647,265.493h-2.835c-6.262,0-11.339,5.076-11.339,11.339v73.701h2.835
		c6.262,0,11.339-5.076,11.339-11.339V265.493z"/>
	<path style="fill:#E6E6E6;" d="M68.474,283.276l0,67.256h0c3.914,0,7.087-3.173,7.087-7.087v-59.918L68.474,283.276z"/>
	<path style="fill:#E6E6E6;" d="M82.647,265.499h-2.835c-6.262,0-11.339,5.076-11.339,11.339v57.79h2.835
		c6.262,0,11.339-5.076,11.339-11.339V265.499z"/>
	<path style="fill:#7CA3CC;" d="M82.647,265.499h-1.308c-3.259,0-5.9,2.642-5.9,5.9v68.534c0,0.723,0.586,1.308,1.308,1.308h0
		c3.259,0,5.9-2.642,5.9-5.9V265.499z"/>
	<polygon style="fill:#C3D3DB;" points="100.058,77.895 92.04,85.913 43.354,37.227 48.655,26.493 	"/>
	<path style="fill:#7CA3CC;" d="M77.647,283.493h-2.835c-6.262,0-11.339,5.076-11.339,11.339v73.701h2.835
		c6.262,0,11.339-5.076,11.339-11.339V283.493z"/>
	<path style="fill:#E6E6E6;" d="M63.474,301.276v67.256h0c3.914,0,7.087-3.173,7.087-7.087v-59.918L63.474,301.276z"/>
	<path style="fill:#E6E6E6;" d="M77.647,283.499h-2.835c-6.262,0-11.339,5.076-11.339,11.339v57.79h2.835
		c6.262,0,11.339-5.076,11.339-11.339V283.499z"/>
	<path style="fill:#7CA3CC;" d="M77.648,283.457h-1.286c-3.203,0-5.8,2.597-5.8,5.8v68.656c0,0.71,0.576,1.286,1.286,1.286h0
		c3.203,0,5.8-2.597,5.8-5.8V283.457z"/>
	<g>
		<path style="fill:#C3D3DB;" d="M105.339,26.51h-2.835c-6.262,0-11.339,5.076-11.339,11.339v73.701h2.835
			c6.262,0,11.339-5.076,11.339-11.339V26.51z"/>
		<path style="fill:#E6E6E6;" d="M91.166,44.293v67.256h0c3.914,0,7.087-3.173,7.087-7.087V44.545L91.166,44.293z"/>
		<path style="fill:#E6E6E6;" d="M105.339,26.517h-2.835c-6.262,0-11.339,5.076-11.339,11.339v57.79h2.835
			c6.262,0,11.339-5.076,11.339-11.339V26.517z"/>
		<path style="fill:#C3D3DB;" d="M105.341,26.475h-1.286c-3.204,0-5.8,2.597-5.8,5.8v68.656c0,0.71,0.576,1.286,1.286,1.286h0
			c3.204,0,5.8-2.597,5.8-5.8V26.475z"/>
	</g>
</g>
</svg>
