<?xml version="1.0" encoding="iso-8859-1"?>
<!-- Generator: Adobe Illustrator 18.0.0, SVG Export Plug-In . SVG Version: 6.00 Build 0)  -->
<!DOCTYPE svg PUBLIC "-//W3C//DTD SVG 1.1//EN" "http://www.w3.org/Graphics/SVG/1.1/DTD/svg11.dtd">
<svg version="1.1" xmlns="http://www.w3.org/2000/svg" xmlns:xlink="http://www.w3.org/1999/xlink" x="0px" y="0px"
	 viewBox="0 0 283.4645691 283.4645691" style="enable-background:new 0 0 283.4645691 283.4645691;" xml:space="preserve">
<symbol  id="Half-N_2" viewBox="-30.0977001 -72.1513977 69.6163025 143.5175934">
	<g id="Vertical_4_">
	</g>
	<g id="flange_7_">
	</g>
	<g id="flange_6_">
		<polyline style="fill:#FFFFFF;stroke:#000000;stroke-linejoin:round;stroke-miterlimit:10;" points="-23.0937996,70.8662033 
			-29.5977001,58.8193016 -29.5977001,-59.6044998 -23.0937996,-71.6513977 		"/>
		<polygon style="fill:#FFFFFF;stroke:#000000;stroke-linejoin:round;stroke-miterlimit:10;" points="39.0186005,-18.3407993 
			-7.0859399,70.8651962 -7.0859399,70.8662033 -23.0937996,70.8662033 -23.0937996,-71.6513977 -7.0859399,-71.6513977 
			-7.0859399,43.9355011 39.0186005,-45.2695007 		"/>
	</g>
</symbol>
<symbol  id="QuarterBar" viewBox="-32.5513763 -5.9786296 26 11.8983498">
	<polyline style="fill:#FFFFFF;stroke:#000000;stroke-miterlimit:10;" points="-7.5513778,-4.9954119 -23.0513783,-4.9954119 
		-23.0513783,5.0045881 -7.5513778,5.0045881 	"/>
	<polygon style="fill:#FFFFFF;stroke:#000000;stroke-linejoin:bevel;stroke-miterlimit:10;" points="-32.0513763,-5.4814501 
		-23.0513783,-4.5214801 -23.0513783,5.4785199 -32.0513763,0.679688 	"/>
	<polygon style="fill:#FFFFFF;" points="-6.5513778,-4.4954119 -21.5513783,-4.4954119 -21.5513783,4.5045881 -6.5513778,4.5045881 
			"/>
	<polygon style="display:none;fill:none;" points="-32.5513763,5.5045881 -6.5513778,5.5045881 -6.5513778,-5.4954119 
		-32.5513763,-5.4954119 	"/>
</symbol>
<g id="reference">
</g>
<g id="legs">
	<g>
		<g>
			<defs>
				<rect id="SVGID_1_" x="1.4173263" y="1.4173263" width="280.6299133" height="280.6299133"/>
			</defs>
			<clipPath id="SVGID_2_">
				<use xlink:href="#SVGID_1_"  style="overflow:visible;"/>
			</clipPath>
			<g style="clip-path:url(#SVGID_2_);">
				<defs>
					<rect id="SVGID_3_" x="0.0001206" y="-0.0003678" width="283.4649048" height="283.4649048"/>
				</defs>
				<clipPath id="SVGID_4_">
					<use xlink:href="#SVGID_3_"  style="overflow:visible;"/>
				</clipPath>
				<path style="clip-path:url(#SVGID_4_);fill:#6A91C0;" d="M282.0472412,141.7322845
					c0,77.4939728-62.8209839,140.3149567-140.3149567,140.3149567S1.4173229,219.2262573,1.4173229,141.7322845
					S64.2383041,1.4173229,141.7322845,1.4173229S282.0472412,64.2383041,282.0472412,141.7322845"/>
			</g>
		</g>
	</g>
</g>
<g id="N">
	<g>
		<g>
			<defs>
				<rect id="SVGID_5_" x="50.7594604" y="63.6928215" width="181.9456024" height="156.0788727"/>
			</defs>
			<clipPath id="SVGID_6_">
				<use xlink:href="#SVGID_5_"  style="overflow:visible;"/>
			</clipPath>
			<g style="clip-path:url(#SVGID_6_);">
				<defs>
					<rect id="SVGID_7_" x="50.7594604" y="63.6928215" width="181.9456024" height="156.0788727"/>
				</defs>
				<clipPath id="SVGID_8_">
					<use xlink:href="#SVGID_7_"  style="overflow:visible;"/>
				</clipPath>
				<path style="clip-path:url(#SVGID_8_);fill:#FFFFFF;" d="M86.3699188,79.9840469
					c2.3822479-9.6870575,12.2350693-17.0265503,22.2343597-16.2324677l10.9722519,0.9891281
					c20.2877121,29.8745422,41.6724777,61.7396927,61.9987259,91.5872498
					c5.8708344-21.224411,11.7763519-42.4372711,17.6664581-63.6539688c0.5165405-1.8233109,0.9135895-3.6967316,1.7076721-5.427536
					c3.5579681-7.9601135,12.2003784-13.557251,20.9854126-12.9250717
					c3.5965118,0.2698364,7.1930237,0.5782166,10.7702637,1.0369339
					c-11.5296478,41.7395554-23.0631561,83.4829636-34.5966492,125.2225266
					c-0.6668854,2.2858734-1.1255951,4.6565704-2.1933746,6.8036804
					c-3.7044373,7.6286163-12.1078644,12.9289246-20.6577606,12.3430023l-11.0778656-1.0454254l-62.0627289-91.5155487
					c-5.6318283,20.253006-11.2482376,40.5098877-16.8762207,60.7667542
					c-1.1448669,3.6928711-1.6999512,7.6440277-3.7815399,10.9784088
					c-3.9935455,6.6456299-11.6452866,11.1595917-19.478199,10.7317047
					c-3.7468491-0.2467041-7.4821243-0.6514587-11.2212639-0.9752655
					C62.6129074,165.772171,74.5203247,122.8838882,86.3699188,79.9840469 M113.2030334,87.1732101
					c-1.6498489,5.8824005-3.2919846,11.7686539-4.8840103,17.6664658
					c20.7618484,30.4835968,41.4427414,61.0250092,62.2007217,91.5124664
					c1.6190186-5.8901062,3.2688599-11.7725067,4.8878632-17.6625977
					C154.6688995,148.1866608,133.9648743,117.6568146,113.2030334,87.1732101"/>
			</g>
		</g>
	</g>
</g>
</svg>
