<?xml version="1.0" encoding="iso-8859-1"?>
<!-- Generator: Adobe Illustrator 18.0.0, SVG Export Plug-In . SVG Version: 6.00 Build 0)  -->
<!DOCTYPE svg PUBLIC "-//W3C//DTD SVG 1.1//EN" "http://www.w3.org/Graphics/SVG/1.1/DTD/svg11.dtd">
<svg version="1.1" xmlns="http://www.w3.org/2000/svg" xmlns:xlink="http://www.w3.org/1999/xlink" x="0px" y="0px"
	 viewBox="0 0 472 404.8972778" style="enable-background:new 0 0 472 404.8972778;" xml:space="preserve">
<symbol  id="Half-N_2" viewBox="-30.0977001 -72.1513977 69.6163025 143.5175934">
	<g id="Vertical_4_">
	</g>
	<g id="flange_7_">
	</g>
	<g id="flange_6_">
		<polyline style="fill:#FFFFFF;stroke:#000000;stroke-linejoin:round;stroke-miterlimit:10;" points="-23.0937996,70.8662033 
			-29.5977001,58.8193016 -29.5977001,-59.6044998 -23.0937996,-71.6513977 		"/>
		<polygon style="fill:#FFFFFF;stroke:#000000;stroke-linejoin:round;stroke-miterlimit:10;" points="39.0186005,-18.3407993 
			-7.0859399,70.8651962 -7.0859399,70.8662033 -23.0937996,70.8662033 -23.0937996,-71.6513977 -7.0859399,-71.6513977 
			-7.0859399,43.9355011 39.0186005,-45.2695007 		"/>
	</g>
</symbol>
<symbol  id="QuarterBar" viewBox="-32.5513763 -5.9786296 26 11.8983498">
	<polyline style="fill:#FFFFFF;stroke:#000000;stroke-miterlimit:10;" points="-7.5513778,-4.9954119 -23.0513783,-4.9954119 
		-23.0513783,5.0045881 -7.5513778,5.0045881 	"/>
	<polygon style="fill:#FFFFFF;stroke:#000000;stroke-linejoin:bevel;stroke-miterlimit:10;" points="-32.0513763,-5.4814501 
		-23.0513783,-4.5214801 -23.0513783,5.4785199 -32.0513763,0.679688 	"/>
	<polygon style="fill:#FFFFFF;" points="-6.5513778,-4.4954119 -21.5513783,-4.4954119 -21.5513783,4.5045881 -6.5513778,4.5045881 
			"/>
	<polygon style="display:none;fill:none;" points="-32.5513763,5.5045881 -6.5513778,5.5045881 -6.5513778,-5.4954119 
		-32.5513763,-5.4954119 	"/>
</symbol>
<g id="Reference">
</g>
<g id="legs">
</g>
<g id="dashes">
	<g>
		<g>
			<path style="fill:#FFFFFF;" d="M92.3799973,42.2626305c6.1800003-25.1299992,31.7400055-44.1699982,57.6800003-42.1099968
				l28.4640198,2.5662701c52.6299896,77.5,108.1059875,160.1637268,160.835968,237.5937347
				c15.230011-55.0600128,30.5500183-110.0900116,45.8300171-165.1300049
				c1.3399963-4.7300034,2.3699951-9.590004,4.4299927-14.0800018c9.230011-20.6499977,31.6499939-35.1699982,54.4400024-33.5299988
				c9.3300171,0.7000008,18.6600037,1.5,27.9400024,2.6900005c-29.9100037,108.2799988-59.8299866,216.5699921-89.75,324.8500061
				c-1.730011,5.9299927-2.9200134,12.0799866-5.6900024,17.6499939
				c-9.6099854,19.7900085-31.4100037,33.5400085-53.5899963,32.019989l-28.7380676-2.7115173L133.2299957,164.6626282
				c-14.609993,52.5400085-29.1799927,105.0899963-43.7799988,157.6400146
				c-2.9699936,9.5799866-4.409996,19.8299866-9.8099976,28.4799805
				c-10.3600006,17.2400208-30.2099991,28.9500122-50.5299988,27.8399963
				C19.3899994,377.9826355,9.6999998,376.9326172,0,376.0926208C30.75,264.8126221,61.6399994,153.5526276,92.3799973,42.2626305z
				 M161.9900055,60.912632c-4.2799988,15.2599983-8.5400085,30.5300026-12.6699982,45.829998
				c53.8599854,79.0800018,107.5099792,158.3100128,161.3599854,237.4000092
				c4.2000122-15.2799988,8.480011-30.5400085,12.6799927-45.8200073
				C269.5599976,219.192627,215.8500061,139.99263,161.9900055,60.912632z"/>
		</g>
	</g>
</g>
</svg>
