<?xml version="1.0" encoding="iso-8859-1"?>
<!-- Generator: Adobe Illustrator 18.0.0, SVG Export Plug-In . SVG Version: 6.00 Build 0)  -->
<!DOCTYPE svg PUBLIC "-//W3C//DTD SVG 1.1//EN" "http://www.w3.org/Graphics/SVG/1.1/DTD/svg11.dtd">
<svg version="1.1" xmlns="http://www.w3.org/2000/svg" xmlns:xlink="http://www.w3.org/1999/xlink" x="0px" y="0px"
	 viewBox="0 0 70.8661423 85.045784" style="enable-background:new 0 0 70.8661423 85.045784;" xml:space="preserve">
<symbol  id="Half-N_2" viewBox="-30.0977001 -72.1513977 69.6163025 143.5175934">
	<g id="Vertical_4_">
	</g>
	<g id="flange_7_">
	</g>
	<g id="flange_6_">
		<polyline style="fill:#FFFFFF;stroke:#000000;stroke-linejoin:round;stroke-miterlimit:10;" points="-23.0937996,70.8662033 
			-29.5977001,58.8193016 -29.5977001,-59.6044998 -23.0937996,-71.6513977 		"/>
		<polygon style="fill:#FFFFFF;stroke:#000000;stroke-linejoin:round;stroke-miterlimit:10;" points="39.0186005,-18.3407993 
			-7.0859399,70.8651962 -7.0859399,70.8662033 -23.0937996,70.8662033 -23.0937996,-71.6513977 -7.0859399,-71.6513977 
			-7.0859399,43.9355011 39.0186005,-45.2695007 		"/>
	</g>
</symbol>
<symbol  id="QuarterBar" viewBox="-32.5513763 -5.9786296 26 11.8983498">
	<polyline style="fill:#FFFFFF;stroke:#000000;stroke-miterlimit:10;" points="-7.5513778,-4.9954119 -23.0513783,-4.9954119 
		-23.0513783,5.0045881 -7.5513778,5.0045881 	"/>
	<polygon style="fill:#FFFFFF;stroke:#000000;stroke-linejoin:bevel;stroke-miterlimit:10;" points="-32.0513763,-5.4814501 
		-23.0513783,-4.5214801 -23.0513783,5.4785199 -32.0513763,0.679688 	"/>
	<polygon style="fill:#FFFFFF;" points="-6.5513778,-4.4954119 -21.5513783,-4.4954119 -21.5513783,4.5045881 -6.5513778,4.5045881 
			"/>
	<polygon style="display:none;fill:none;" points="-32.5513763,5.5045881 -6.5513778,5.5045881 -6.5513778,-5.4954119 
		-32.5513763,-5.4954119 	"/>
</symbol>
<g id="legs">
</g>
<g id="dashes">
	<polygon style="fill:#FFFFFF;" points="14.0014038,0.0139795 14.0014038,0.0439477 13.9713745,0.0439477 	"/>
	<path style="fill:#FFFFFF;" d="M68.0313721,0.0393701C61.7713623,0.0393701,57,5.0839868,57,11.343936v31.5L14.1813965,0.0393701
		h-2.8400269C5.0813599,0.0393701,0,5.073977,0,11.3339872v73.7053833h2.8313599C9.1013794,85.0393677,14,79.9639282,14,73.7039795
		V42.5339394l42.7399902,42.510006L57,85.0239258v0.0154419h2.5313721C65.7913818,85.0393677,71,79.973938,71,73.7039795V0.0393701
		H68.0313721z M57,69.0239258L14,26.513979V15.8539457l0.1706848,0.169982l42.5196686,42.5300293L57,58.8639565V69.0239258z"/>
	<g>
		<polygon style="fill:#FFFFFF;" points="14.0014038,0.0139795 14.0014038,0.0439477 13.9713745,0.0439477 		"/>
		<polygon style="fill:#FFFFFF;" points="14.0014038,0.0139795 14.0014038,0.0439477 13.9713745,0.0439477 		"/>
	</g>
</g>
</svg>
