<?xml version="1.0" encoding="iso-8859-1"?>
<!-- Generator: Adobe Illustrator 18.0.0, SVG Export Plug-In . SVG Version: 6.00 Build 0)  -->
<!DOCTYPE svg PUBLIC "-//W3C//DTD SVG 1.1//EN" "http://www.w3.org/Graphics/SVG/1.1/DTD/svg11.dtd">
<svg version="1.1" xmlns="http://www.w3.org/2000/svg" xmlns:xlink="http://www.w3.org/1999/xlink" x="0px" y="0px"
	 viewBox="0 0 283.4645691 283.4645691" style="enable-background:new 0 0 283.4645691 283.4645691;" xml:space="preserve">
<symbol  id="Half-N_2" viewBox="-30.0977001 -72.1513977 69.6163025 143.5175934">
	<g id="Vertical_4_">
	</g>
	<g id="flange_7_">
	</g>
	<g id="flange_6_">
		<polyline style="fill:#FFFFFF;stroke:#000000;stroke-linejoin:round;stroke-miterlimit:10;" points="-23.0937996,70.8662033 
			-29.5977001,58.8193016 -29.5977001,-59.6044998 -23.0937996,-71.6513977 		"/>
		<polygon style="fill:#FFFFFF;stroke:#000000;stroke-linejoin:round;stroke-miterlimit:10;" points="39.0186005,-18.3407993 
			-7.0859399,70.8651962 -7.0859399,70.8662033 -23.0937996,70.8662033 -23.0937996,-71.6513977 -7.0859399,-71.6513977 
			-7.0859399,43.9355011 39.0186005,-45.2695007 		"/>
	</g>
</symbol>
<symbol  id="QuarterBar" viewBox="-32.5513763 -5.9786296 26 11.8983498">
	<polyline style="fill:#FFFFFF;stroke:#000000;stroke-miterlimit:10;" points="-7.5513778,-4.9954119 -23.0513783,-4.9954119 
		-23.0513783,5.0045881 -7.5513778,5.0045881 	"/>
	<polygon style="fill:#FFFFFF;stroke:#000000;stroke-linejoin:bevel;stroke-miterlimit:10;" points="-32.0513763,-5.4814501 
		-23.0513783,-4.5214801 -23.0513783,5.4785199 -32.0513763,0.679688 	"/>
	<polygon style="fill:#FFFFFF;" points="-6.5513778,-4.4954119 -21.5513783,-4.4954119 -21.5513783,4.5045881 -6.5513778,4.5045881 
			"/>
	<polygon style="display:none;fill:none;" points="-32.5513763,5.5045881 -6.5513778,5.5045881 -6.5513778,-5.4954119 
		-32.5513763,-5.4954119 	"/>
</symbol>
<g id="legs">
	<g>
		<g>
			<defs>
				<rect id="SVGID_1_" x="0.3401055" y="0.3981003" width="282" height="282"/>
			</defs>
			<clipPath id="SVGID_2_">
				<use xlink:href="#SVGID_1_"  style="overflow:visible;"/>
			</clipPath>
			<g style="clip-path:url(#SVGID_2_);">
				<defs>
					<rect id="SVGID_3_" x="0.3401055" y="0.3981003" width="282" height="282"/>
				</defs>
				<clipPath id="SVGID_4_">
					<use xlink:href="#SVGID_3_"  style="overflow:visible;"/>
				</clipPath>
				<path style="clip-path:url(#SVGID_4_);fill:#186C9D;" d="M282.187439,141.1655731
					c0,77.8848114-63.1375732,141.0223846-141.0223846,141.0223846S0.1426509,219.0503845,0.1426509,141.1655731
					S63.2802238,0.1431876,141.1650543,0.1431876S282.187439,63.2807465,282.187439,141.1655731"/>
			</g>
		</g>
	</g>
</g>
<g id="N">
	<g>
		<g>
			<defs>
				
					<rect id="SVGID_5_" x="74.3215866" y="60.8405533" transform="matrix(-0.9659258 -0.2588191 0.2588191 -0.9659258 241.9521179 315.3181763)" width="134.8213959" height="161.7834625"/>
			</defs>
			<clipPath id="SVGID_6_">
				<use xlink:href="#SVGID_5_"  style="overflow:visible;"/>
			</clipPath>
			<g style="clip-path:url(#SVGID_6_);">
				<defs>
					
						<rect id="SVGID_7_" x="74.321579" y="60.8405991" transform="matrix(-0.9659258 -0.2588191 0.2588191 -0.9659258 241.9524536 315.3183289)" width="134.8217621" height="161.7834625"/>
				</defs>
				<clipPath id="SVGID_8_">
					<use xlink:href="#SVGID_7_"  style="overflow:visible;"/>
				</clipPath>
				<path style="clip-path:url(#SVGID_8_);fill:#CBDCE3;" d="M178.6208954,219.5705872l-18.6821899,10.7861633
					L97.9221268,122.9381866c-4.4675522-7.7380295-1.8165054-17.6318741,5.921524-22.0994263l4.6712189-2.6953735
					L178.6208954,219.5705872z"/>
			</g>
			<g style="clip-path:url(#SVGID_6_);">
				<defs>
					
						<rect id="SVGID_9_" x="74.321579" y="60.8405991" transform="matrix(-0.9659258 -0.2588191 0.2588191 -0.9659258 241.9524536 315.3183289)" width="134.8217621" height="161.7834625"/>
				</defs>
				<clipPath id="SVGID_10_">
					<use xlink:href="#SVGID_9_"  style="overflow:visible;"/>
				</clipPath>
				<path style="clip-path:url(#SVGID_10_);fill:#CBDCE3;" d="M123.6002579,53.127758L123.6002579,53.127758
					c-14.3850174-3.854454-29.1695557,4.6829567-33.0235214,19.0661507L55.6827888,202.4198914l5.2078667,1.3954468
					c11.5091171,3.0838623,23.3363571-3.7446136,26.4197235-15.2518921L123.6002579,53.127758z"/>
				<path style="clip-path:url(#SVGID_10_);fill:#F2F2F2;" d="M105.6852951,67.8969421l-13.0233383-3.4895935
					L55.6812477,202.4212341c7.1925125,1.9272308,14.5856972-2.341217,16.512928-9.5337372L105.6852951,67.8969421z"/>
				<path style="clip-path:url(#SVGID_10_);fill:#F2F2F2;" d="M123.6002579,53.127758l-5.2097015-1.3959351
					c-11.5072784-3.0833664-23.3345184,3.7450981-26.4183807,15.2542229l26.044838,6.9786911L123.6002579,53.127758z"/>
				<path style="clip-path:url(#SVGID_10_);fill:#CBDCE3;" d="M123.6002579,53.127758L123.6002579,53.127758
					c-7.1925125-1.927227-14.5856934,2.3412399-16.5129242,9.5337524l-3.4890976,13.0214958l13.0233307,3.4895935
					L123.6002579,53.127758z"/>
			</g>
			<g style="clip-path:url(#SVGID_6_);">
				<defs>
					
						<rect id="SVGID_11_" x="74.321579" y="60.8405991" transform="matrix(-0.9659258 -0.2588191 0.2588191 -0.9659258 241.9524536 315.3183289)" width="134.8217621" height="161.7834625"/>
				</defs>
				<clipPath id="SVGID_12_">
					<use xlink:href="#SVGID_11_"  style="overflow:visible;"/>
				</clipPath>
				<path style="clip-path:url(#SVGID_12_);fill:#CBDCE3;" d="M193.6228485,174.5333862l-18.6821899,10.7861633
					l-64.7124557-112.087944c-2.9783707-5.1586838-1.2106781-11.7557945,3.9480133-14.7341728l9.3405991-5.3912354
					L193.6228485,174.5333862z"/>
			</g>
			<g style="clip-path:url(#SVGID_6_);">
				<defs>
					
						<rect id="SVGID_13_" x="74.321579" y="60.8405991" transform="matrix(-0.9659258 -0.2588191 0.2588191 -0.9659258 241.9524536 315.3183289)" width="134.8217621" height="161.7834625"/>
				</defs>
				<clipPath id="SVGID_14_">
					<use xlink:href="#SVGID_13_"  style="overflow:visible;"/>
				</clipPath>
				<path style="clip-path:url(#SVGID_14_);fill:#CBDCE3;" d="M227.7821503,81.0432129L227.7821503,81.0432129
					c-14.385025-3.854454-29.1695557,4.6829529-33.0235138,19.0661469l-34.8939514,130.2259827l5.2078552,1.3954468
					c11.5091248,3.0838623,23.3363647-3.7445984,26.4197388-15.2518921L227.7821503,81.0432129z"/>
				<path style="clip-path:url(#SVGID_14_);fill:#F2F2F2;" d="M209.8675537,95.8124924l-13.0233307-3.4895935
					L159.8635101,230.336792c7.1925201,1.9272308,14.5856934-2.3412323,16.5129242-9.5337372L209.8675537,95.8124924z"/>
				<path style="clip-path:url(#SVGID_14_);fill:#F2F2F2;" d="M227.7825165,81.0433121l-5.2097168-1.3959351
					c-11.5072632-3.0833664-23.3345032,3.7450943-26.4183655,15.2542191l26.0448303,6.9786911L227.7825165,81.0433121z"/>
				<path style="clip-path:url(#SVGID_14_);fill:#CBDCE3;" d="M227.7825165,81.0433121L227.7825165,81.0433121
					c-7.1925049-1.9272308-14.5856934,2.3412399-16.5129242,9.5337524l-3.4891052,13.021492l13.0233459,3.4895935
					L227.7825165,81.0433121z"/>
			</g>
		</g>
	</g>
</g>
</svg>
