<?xml version="1.0" encoding="iso-8859-1"?>
<!-- Generator: Adobe Illustrator 18.0.0, SVG Export Plug-In . SVG Version: 6.00 Build 0)  -->
<!DOCTYPE svg PUBLIC "-//W3C//DTD SVG 1.1//EN" "http://www.w3.org/Graphics/SVG/1.1/DTD/svg11.dtd">
<svg version="1.1" xmlns="http://www.w3.org/2000/svg" xmlns:xlink="http://www.w3.org/1999/xlink" x="0px" y="0px"
	 viewBox="0 0 439.0382385 387.9273071" style="enable-background:new 0 0 439.0382385 387.9273071;" xml:space="preserve">
<symbol  id="Half-N_2" viewBox="-30.0977001 -72.1513977 69.6163025 143.5175934">
	<g id="Vertical_4_">
	</g>
	<g id="flange_7_">
	</g>
	<g id="flange_6_">
		<polyline style="fill:#FFFFFF;stroke:#000000;stroke-linejoin:round;stroke-miterlimit:10;" points="-23.0937996,70.8662033 
			-29.5977001,58.8193016 -29.5977001,-59.6044998 -23.0937996,-71.6513977 		"/>
		<polygon style="fill:#FFFFFF;stroke:#000000;stroke-linejoin:round;stroke-miterlimit:10;" points="39.0186005,-18.3407993 
			-7.0859399,70.8651962 -7.0859399,70.8662033 -23.0937996,70.8662033 -23.0937996,-71.6513977 -7.0859399,-71.6513977 
			-7.0859399,43.9355011 39.0186005,-45.2695007 		"/>
	</g>
</symbol>
<symbol  id="QuarterBar" viewBox="-32.5513763 -5.9786296 26 11.8983498">
	<polyline style="fill:#FFFFFF;stroke:#000000;stroke-miterlimit:10;" points="-7.5513778,-4.9954119 -23.0513783,-4.9954119 
		-23.0513783,5.0045881 -7.5513778,5.0045881 	"/>
	<polygon style="fill:#FFFFFF;stroke:#000000;stroke-linejoin:bevel;stroke-miterlimit:10;" points="-32.0513763,-5.4814501 
		-23.0513783,-4.5214801 -23.0513783,5.4785199 -32.0513763,0.679688 	"/>
	<polygon style="fill:#FFFFFF;" points="-6.5513778,-4.4954119 -21.5513783,-4.4954119 -21.5513783,4.5045881 -6.5513778,4.5045881 
			"/>
	<polygon style="display:none;fill:none;" points="-32.5513763,5.5045881 -6.5513778,5.5045881 -6.5513778,-5.4954119 
		-32.5513763,-5.4954119 	"/>
</symbol>
<g id="Reference">
</g>
<g id="legs">
</g>
<g id="dashes">
	<g>
		<g>
			<path style="fill:#FFFFFF;" d="M62.0294724,47.119545c3.898407-25.5834274,27.6453857-46.8417473,53.6655731-47.1194305
				L144.2745056,0c59.3767395,72.4608231,122.0516357,149.8089447,181.521698,222.1910706
				c10.2241821-56.2051697,20.5406799-112.3885651,30.8164673-168.5783081
				c0.9098511-4.8312187,1.4992676-9.7640762,3.1477356-14.4209213C367.0987854,17.7964211,388.1243591,0.4131252,410.9695435,0
				h28.0686951c-20.0658264,110.5284119-60.2164917,332.6758423-60.2164917,332.6758423s-1.8234558,12.293396-4.0820923,18.0896301
				c-7.7940674,20.5730286-28.2712708,36.68396-50.4981384,37.1618347h-28.865448L113.7057266,165.3567963
				c-9.8329773,53.639679-29.4473495,160.934494-29.4473495,160.934494s-2.6114883,20.1459045-7.2129135,29.2458496
				c-8.7700272,18.1006775-27.5046043,31.67099-47.842186,32.3901672H0
				C20.6330338,274.3355713,41.4072952,160.7203217,62.0294724,47.119545z M133.0329742,59.4433517
				c-2.8923798,15.5826797-5.7639542,31.1735306-8.5033569,46.7825851
				c60.7436371,73.923996,121.2915955,148.0162354,182.0261688,221.9510651
				c2.8109436-15.5953979,5.7033081-31.1781006,8.5142212-46.7735291
				C254.3816528,207.4243164,193.7766266,133.3673401,133.0329742,59.4433517z"/>
		</g>
	</g>
</g>
</svg>
