<?xml version="1.0" encoding="iso-8859-1"?>
<!-- Generator: Adobe Illustrator 18.0.0, SVG Export Plug-In . SVG Version: 6.00 Build 0)  -->
<!DOCTYPE svg PUBLIC "-//W3C//DTD SVG 1.1//EN" "http://www.w3.org/Graphics/SVG/1.1/DTD/svg11.dtd">
<svg version="1.1" xmlns="http://www.w3.org/2000/svg" xmlns:xlink="http://www.w3.org/1999/xlink" x="0px" y="0px"
	 viewBox="0 0 70.8667679 85.0922546" style="enable-background:new 0 0 70.8667679 85.0922546;" xml:space="preserve">
<symbol  id="Half-N_2" viewBox="-30.0977001 -72.1513977 69.6163025 143.5175934">
	<g id="Vertical_4_">
	</g>
	<g id="flange_7_">
	</g>
	<g id="flange_6_">
		<polyline style="fill:#FFFFFF;stroke:#000000;stroke-linejoin:round;stroke-miterlimit:10;" points="-23.0937996,70.8662033 
			-29.5977001,58.8193016 -29.5977001,-59.6044998 -23.0937996,-71.6513977 		"/>
		<polygon style="fill:#FFFFFF;stroke:#000000;stroke-linejoin:round;stroke-miterlimit:10;" points="39.0186005,-18.3407993 
			-7.0859399,70.8651962 -7.0859399,70.8662033 -23.0937996,70.8662033 -23.0937996,-71.6513977 -7.0859399,-71.6513977 
			-7.0859399,43.9355011 39.0186005,-45.2695007 		"/>
	</g>
</symbol>
<symbol  id="QuarterBar" viewBox="-32.5513763 -5.9786296 26 11.8983498">
	<polyline style="fill:#FFFFFF;stroke:#000000;stroke-miterlimit:10;" points="-7.5513778,-4.9954119 -23.0513783,-4.9954119 
		-23.0513783,5.0045881 -7.5513778,5.0045881 	"/>
	<polygon style="fill:#FFFFFF;stroke:#000000;stroke-linejoin:bevel;stroke-miterlimit:10;" points="-32.0513763,-5.4814501 
		-23.0513783,-4.5214801 -23.0513783,5.4785199 -32.0513763,0.679688 	"/>
	<polygon style="fill:#FFFFFF;" points="-6.5513778,-4.4954119 -21.5513783,-4.4954119 -21.5513783,4.5045881 -6.5513778,4.5045881 
			"/>
	<polygon style="display:none;fill:none;" points="-32.5513763,5.5045881 -6.5513778,5.5045881 -6.5513778,-5.4954119 
		-32.5513763,-5.4954119 	"/>
</symbol>
<g id="legs">
</g>
<g id="N">
	<path style="fill:#7CA3CC;" d="M70.8661423,0.0416671h-2.8346481c-6.2621231,0-11.3385811,5.0764565-11.3385811,11.338583
		v73.7007904h2.8346443c6.2621307,0,11.3385849-5.0764618,11.3385849-11.3385849V0.0416671z"/>
	<path style="fill:#CBDCE3;" d="M14.1888533,0.052884H11.354208c-6.2621264,0-11.338583,5.0764561-11.338583,11.338583l0,73.7007904
		h2.8346457c6.2621264,0,11.338583-5.0764542,11.338583-11.3385849V0.052884z"/>
	<path style="fill:#F2F2F2;" d="M14.1744804,0l-2.8346453,0C5.0777087,0,0.0012522,5.0764565,0.0012522,11.338583v0.744709
		h2.8346457c6.2621264,0,11.338583-5.0764565,11.338583-11.338583V0z"/>
	<path style="fill:#CBDCE3;" d="M14.1744804,0L12.88832,0C9.6848173,0,7.0878663,2.5969515,7.0878663,5.8004532v68.6556473
		c0,0.7103195,0.5758305,1.2861481,1.2861533,1.2861481h0.0000076c3.2035017,0,5.8004532-2.5969467,5.8004532-5.8004532V0z"/>
	<polygon style="fill:#CBDCE3;" points="65.5771942,51.4027138 57.5596046,59.4203033 8.8737917,10.7344885 14.1744804,0 	"/>
	<polygon style="fill:#CBDCE3;" points="64.6879272,77.0570374 56.6929131,85.0810394 5.2676225,33.6719131 13.2852106,25.6543236 	
		"/>
	<path style="fill:#F2F2F2;" d="M0.015625,11.171134l0.0000026,73.9133072h0.0000071
		c3.913825,0,7.0866075-3.1727829,7.0866075-7.0866089V11.171134H0.015625z"/>
	<g>
		<path style="fill:#CBDCE3;" d="M70.8655167,0.0528841h-2.8346481c-6.2621231,0-11.3385811,5.0764565-11.3385811,11.338583
			v73.7007904h2.8346443c6.2621307,0,11.3385849-5.0764542,11.3385849-11.3385849V0.0528841z"/>
		<path style="fill:#F2F2F2;" d="M56.6922874,17.8358421l0.0000038,67.2564087h0.0000076
			c3.9138222,0,7.0866051-3.1727829,7.0866051-7.0866089V18.0876102L56.6922874,17.8358421z"/>
		<path style="fill:#F2F2F2;" d="M70.8655167,0l-2.8346481,0c-6.2621231,0-11.3385811,5.0764565-11.3385811,11.338583V69.128624
			h2.8346443c6.2621307,0,11.3385849-5.0764542,11.3385849-11.3385811V0z"/>
		<path style="fill:#CBDCE3;" d="M70.8655167,0l-1.2861633,0c-3.2034988,0-5.8004532,2.5969515-5.8004532,5.8004532v68.6556473
			c0,0.7103195,0.5758286,1.2861481,1.2861557,1.2861481h0.0000076c3.2034988,0,5.8004532-2.5969467,5.8004532-5.8004532V0z"/>
	</g>
</g>
</svg>
