<?xml version="1.0" encoding="iso-8859-1"?>
<!-- Generator: Adobe Illustrator 18.0.0, SVG Export Plug-In . SVG Version: 6.00 Build 0)  -->
<!DOCTYPE svg PUBLIC "-//W3C//DTD SVG 1.1//EN" "http://www.w3.org/Graphics/SVG/1.1/DTD/svg11.dtd">
<svg version="1.1" xmlns="http://www.w3.org/2000/svg" xmlns:xlink="http://www.w3.org/1999/xlink" x="0px" y="0px"
	 viewBox="0 0 141.732 141.732" style="enable-background:new 0 0 141.732 141.732;" xml:space="preserve">
<symbol  id="Half-N_2" viewBox="-30.098 -72.151 69.616 143.518">
	<g id="Vertical_4_">
	</g>
	<g id="flange_7_">
	</g>
	<g id="flange_6_">
		<polyline style="fill:#FFFFFF;stroke:#000000;stroke-linejoin:round;stroke-miterlimit:10;" points="-23.094,70.866 
			-29.598,58.819 -29.598,-59.604 -23.094,-71.651 		"/>
		<polygon style="fill:#FFFFFF;stroke:#000000;stroke-linejoin:round;stroke-miterlimit:10;" points="39.019,-18.341 -7.086,70.865 
			-7.086,70.866 -23.094,70.866 -23.094,-71.651 -7.086,-71.651 -7.086,43.936 39.019,-45.27 		"/>
	</g>
</symbol>
<symbol  id="QuarterBar" viewBox="-32.551 -5.979 26 11.898">
	<polyline style="fill:#FFFFFF;stroke:#000000;stroke-miterlimit:10;" points="-7.551,-4.995 -23.051,-4.995 -23.051,5.005 
		-7.551,5.005 	"/>
	<polygon style="fill:#FFFFFF;stroke:#000000;stroke-linejoin:bevel;stroke-miterlimit:10;" points="-32.051,-5.481 -23.051,-4.521 
		-23.051,5.479 -32.051,0.68 	"/>
	<polygon style="fill:#FFFFFF;" points="-6.551,-4.495 -21.551,-4.495 -21.551,4.505 -6.551,4.505 	"/>
	<polygon style="display:none;fill:none;" points="-32.551,5.505 -6.551,5.505 -6.551,-5.495 -32.551,-5.495 	"/>
</symbol>
<g id="legs">
</g>
<g id="N">
	<g>
		<path style="fill:#7CA3CC;" d="M48.647,26.493h-2.835c-6.262,0-11.339,5.076-11.339,11.339v73.701h2.835
			c6.262,0,11.339-5.076,11.339-11.339V26.493z"/>
		<path style="fill:#7CA3CC;" d="M105.34,26.499h-2.835c-6.262,0-11.339,5.076-11.339,11.339v73.701h2.835
			c6.262,0,11.339-5.076,11.339-11.339V26.499z"/>
		
			<rect x="64.678" y="19.856" transform="matrix(0.7071 -0.7071 0.7071 0.7071 -19.137 66.2046)" style="fill:#7CA3CC;" width="11.339" height="72.694"/>
		
			<rect x="63.782" y="45.475" transform="matrix(0.7071 -0.7071 0.7071 0.7071 -37.5148 73.0748)" style="fill:#7CA3CC;" width="11.339" height="72.694"/>
	</g>
</g>
</svg>
