<?xml version="1.0" encoding="iso-8859-1"?>
<!-- Generator: Adobe Illustrator 18.0.0, SVG Export Plug-In . SVG Version: 6.00 Build 0)  -->
<!DOCTYPE svg PUBLIC "-//W3C//DTD SVG 1.1//EN" "http://www.w3.org/Graphics/SVG/1.1/DTD/svg11.dtd">
<svg version="1.1" xmlns="http://www.w3.org/2000/svg" xmlns:xlink="http://www.w3.org/1999/xlink" x="0px" y="0px"
	 viewBox="0 0 70.8667679 85.0393677" style="enable-background:new 0 0 70.8667679 85.0393677;" xml:space="preserve">
<symbol  id="Half-N_2" viewBox="-30.0977001 -72.1513977 69.6163025 143.5175934">
	<g id="Vertical_4_">
	</g>
	<g id="flange_7_">
	</g>
	<g id="flange_6_">
		<polyline style="fill:#FFFFFF;stroke:#000000;stroke-linejoin:round;stroke-miterlimit:10;" points="-23.0937996,70.8662033 
			-29.5977001,58.8193016 -29.5977001,-59.6044998 -23.0937996,-71.6513977 		"/>
		<polygon style="fill:#FFFFFF;stroke:#000000;stroke-linejoin:round;stroke-miterlimit:10;" points="39.0186005,-18.3407993 
			-7.0859399,70.8651962 -7.0859399,70.8662033 -23.0937996,70.8662033 -23.0937996,-71.6513977 -7.0859399,-71.6513977 
			-7.0859399,43.9355011 39.0186005,-45.2695007 		"/>
	</g>
</symbol>
<symbol  id="QuarterBar" viewBox="-33.6846085 -6.0415387 27 11.9612589">
	<polyline style="fill:#FFFFFF;stroke:#000000;stroke-miterlimit:10;" points="-7.6846099,-5.5415387 -23.1846104,-5.5415387 
		-23.1846104,4.4584613 -7.6846099,4.4584613 	"/>
	<polygon style="fill:#FFFFFF;stroke:#000000;stroke-linejoin:bevel;stroke-miterlimit:10;" points="-32.1846085,-5.4814501 
		-23.1846104,-4.5214801 -23.1846104,5.4785199 -32.1846085,0.679688 	"/>
	<polygon style="fill:#FFFFFF;" points="-6.6846099,-5.0415387 -21.6846104,-5.0415387 -21.6846104,3.9584613 -6.6846099,3.9584613 
			"/>
	<polygon style="display:none;fill:none;" points="-33.6846085,4.9584613 -6.6846099,4.9584613 -6.6846099,-6.0415387 
		-33.6846085,-6.0415387 	"/>
</symbol>
<g id="lower__x5C_">
	<path style="fill:#CBDCE3;" d="M64.7521057,77.0217819l-8.0175896,8.0175934L10.633379,38.9382362
		c-3.3209934-3.3209915-3.3209934-8.7053871,0-12.0263824l2.0043974-2.0043964L64.7521057,77.0217819z"/>
</g>
<g id="_x7C_">
	<g id="Leg_1_">
		<path style="fill:#CBDCE3;" d="M14.1732283-0.0000012H14.173214C6.3455644-0.0000012,0,6.3455629,0,14.173213v70.8661575
			h2.8346457c6.2621264,0,11.338583-5.0764542,11.338583-11.3385849V-0.0000012z"/>
		<g>
			<path style="fill:#F2F2F2;" d="M7.0866141,9.9358606H0v75.103508h0.0000071c3.913825,0,7.086607-3.1727829,7.086607-7.0866089
				V9.9358606z"/>
			<path style="fill:#F2F2F2;" d="M14.1732283-0.0000011l-2.8346567,0C5.0764513-0.0000011,0,5.0764503,0,11.3385706v0.0000105
				h14.1732283V-0.0000011z"/>
			<path style="fill:#CBDCE3;" d="M14.1732283-0.0000012h-0.0000067c-3.913825,0-7.0866075,3.1727819-7.0866075,7.0866075v7.0866213
				h7.0866141V-0.0000012z"/>
		</g>
	</g>
</g>
<g id="upper__x5C_">
	<path style="fill:#CBDCE3;" d="M66.24189,52.1143265l-8.0175896,8.0175896L10.1187677,12.0263834
		c-2.2139959-2.2139959-2.2139959-5.8035932,0-8.0175896l4.0087948-4.0087943L66.24189,52.1143265z"/>
</g>
<g id="_________x7C_">
	<g id="Leg">
		<path style="fill:#CBDCE3;" d="M70.8665848-0.0000012h-0.0000076c-7.827652,0-14.1732178,6.3455644-14.1732178,14.173214
			v70.8661575h2.8346443c6.2621269,0,11.3385811-5.0764542,11.3385811-11.3385849V-0.0000012z"/>
		<g>
			<path style="fill:#F2F2F2;" d="M63.7801552,9.9358606h-7.0866165v75.103508h0.0000076
				c3.913826,0,7.0866089-3.1727829,7.0866089-7.0866089V9.9358606z"/>
			<path style="fill:#F2F2F2;" d="M70.8667679-0.0000011l-2.8346558,0c-6.2621231,0-11.3385735,5.0764513-11.3385735,11.3385715
				v0.0000105h14.1732292V-0.0000011z"/>
			<path style="fill:#CBDCE3;" d="M70.8667679-0.0000012h-0.0000076c-3.913826,0-7.0866051,3.1727819-7.0866051,7.0866075v7.0866213
				h7.0866127V-0.0000012z"/>
		</g>
	</g>
</g>
</svg>
