<?xml version="1.0" encoding="iso-8859-1"?>
<!-- Generator: Adobe Illustrator 18.0.0, SVG Export Plug-In . SVG Version: 6.00 Build 0)  -->
<!DOCTYPE svg PUBLIC "-//W3C//DTD SVG 1.1//EN" "http://www.w3.org/Graphics/SVG/1.1/DTD/svg11.dtd">
<svg version="1.1" xmlns="http://www.w3.org/2000/svg" xmlns:xlink="http://www.w3.org/1999/xlink" x="0px" y="0px"
	 viewBox="0 0 283.4645691 283.4645691" style="enable-background:new 0 0 283.4645691 283.4645691;" xml:space="preserve">
<symbol  id="Half-N_2" viewBox="-30.0977001 -72.1513977 69.6163025 143.5175934">
	<g id="Vertical_4_">
	</g>
	<g id="flange_7_">
	</g>
	<g id="flange_6_">
		<polyline style="fill:#FFFFFF;stroke:#000000;stroke-linejoin:round;stroke-miterlimit:10;" points="-23.0937996,70.8662033 
			-29.5977001,58.8193016 -29.5977001,-59.6044998 -23.0937996,-71.6513977 		"/>
		<polygon style="fill:#FFFFFF;stroke:#000000;stroke-linejoin:round;stroke-miterlimit:10;" points="39.0186005,-18.3407993 
			-7.0859399,70.8651962 -7.0859399,70.8662033 -23.0937996,70.8662033 -23.0937996,-71.6513977 -7.0859399,-71.6513977 
			-7.0859399,43.9355011 39.0186005,-45.2695007 		"/>
	</g>
</symbol>
<symbol  id="QuarterBar" viewBox="-32.5513763 -5.9786296 26 11.8983498">
	<polyline style="fill:#FFFFFF;stroke:#000000;stroke-miterlimit:10;" points="-7.5513778,-4.9954119 -23.0513783,-4.9954119 
		-23.0513783,5.0045881 -7.5513778,5.0045881 	"/>
	<polygon style="fill:#FFFFFF;stroke:#000000;stroke-linejoin:bevel;stroke-miterlimit:10;" points="-32.0513763,-5.4814501 
		-23.0513783,-4.5214801 -23.0513783,5.4785199 -32.0513763,0.679688 	"/>
	<polygon style="fill:#FFFFFF;" points="-6.5513778,-4.4954119 -21.5513783,-4.4954119 -21.5513783,4.5045881 -6.5513778,4.5045881 
			"/>
	<polygon style="display:none;fill:none;" points="-32.5513763,5.5045881 -6.5513778,5.5045881 -6.5513778,-5.4954119 
		-32.5513763,-5.4954119 	"/>
</symbol>
<g id="legs">
</g>
<g id="N">
	<circle style="fill:#186C9D;" cx="141.7322845" cy="141.7322845" r="141.7322845"/>
	<g>
		<g>
			<defs>
				
					<rect id="SVGID_1_" x="75.2304611" y="61.8793411" transform="matrix(-0.9659258 -0.2588191 0.2588191 -0.9659258 241.9521179 315.3181763)" width="133.0036469" height="159.7058868"/>
			</defs>
			<clipPath id="SVGID_2_">
				<use xlink:href="#SVGID_1_"  style="overflow:visible;"/>
			</clipPath>
			<g style="clip-path:url(#SVGID_2_);">
				<defs>
					
						<rect id="SVGID_3_" x="75.2275696" y="61.8791962" transform="matrix(-0.9659258 -0.2588191 0.2588191 -0.9659258 241.9508057 315.3184509)" width="133.0081329" height="159.7066193"/>
				</defs>
				<clipPath id="SVGID_4_">
					<use xlink:href="#SVGID_3_"  style="overflow:visible;"/>
				</clipPath>
				<path style="clip-path:url(#SVGID_4_);fill:#7CA3CC;" d="M226.615448,81.8872757l-5.1396332-1.3771591
					c-11.352478-3.0418854-23.0206146,3.6947174-26.0629883,15.0490189l-35.8012238,133.6119995l5.1378021,1.3766632
					c11.3542938,3.0423737,23.0224457-3.6942291,26.0643311-15.0467224L226.615448,81.8872757z"/>
				<path style="clip-path:url(#SVGID_4_);fill:#CBDCE3;" d="M123.8589478,54.3755188l-5.1396179-1.3771591
					C107.3668365,49.9564705,95.6987,56.6930771,92.6563263,68.0473785L56.8551064,201.6593628l5.1378059,1.3766632
					c11.3543015,3.0423889,23.022438-3.6942291,26.0643234-15.0467072L123.8589478,54.3755188z"/>
				<path style="clip-path:url(#SVGID_4_);fill:#F2F2F2;" d="M123.8585434,54.2726135l-5.1396255-1.3771553
					c-11.3524857-3.0418892-23.0206223,3.6947174-26.0629959,15.049015l-0.361412,1.3488083l5.1378098,1.3766708
					c11.3543015,3.0423737,23.0224304-3.6942215,26.0643234-15.0467072L123.8585434,54.2726135z"/>
				<path style="clip-path:url(#SVGID_4_);fill:#CBDCE3;" d="M123.8585434,54.2726135l-2.3314133-0.6246986
					c-5.8085861-1.5564041-11.7782745,1.8901978-13.334198,7.6969757L74.8419266,185.8125153
					c-0.3448944,1.2871704,0.419548,2.6112061,1.7085266,2.9565887c5.806778,1.5559235,11.7764664-1.8906708,13.3323822-7.6974335
					L123.8585434,54.2726135z"/>
				<polygon style="clip-path:url(#SVGID_4_);fill:#CBDCE3;" points="192.0774536,172.4315033 173.6465759,183.0725708 
					109.0348969,71.1591949 123.8580933,54.27211 				"/>
				<polygon style="clip-path:url(#SVGID_4_);fill:#CBDCE3;" points="178.0031433,218.5086212 159.6110382,229.1717377 
					91.3547211,110.9907913 109.7837753,100.3492355 				"/>
				<path style="clip-path:url(#SVGID_4_);fill:#F2F2F2;" d="M92.7629929,67.6471176L56.8583031,201.6452637
					c7.0957565,1.9013062,14.3890038-2.3079376,16.2903023-9.4036865l32.462532-121.1518097L92.7629929,67.6471176z"/>
				<path style="clip-path:url(#SVGID_4_);fill:#CBDCE3;" d="M226.6089325,81.9072876l-5.1396332-1.3771591
					c-11.352478-3.0418854-23.0206146,3.694725-26.0629883,15.0490265l-35.8012238,133.611969l5.1378021,1.3766785
					c11.3542938,3.0423737,23.0224304-3.6942291,26.0643311-15.0467224L226.6089325,81.9072876z"/>
				<path style="clip-path:url(#SVGID_4_);fill:#F2F2F2;" d="M192.27565,107.2614822l-32.670929,121.9295425
					c7.0957489,1.9013062,14.3889923-2.3079224,16.2902985-9.4036865l29.1063538-108.6263428L192.27565,107.2614822z"/>
				<path style="clip-path:url(#SVGID_4_);fill:#F2F2F2;" d="M226.6346283,81.8113861l-5.1396332-1.3771591
					c-11.352478-3.041893-23.0206146,3.6947174-26.0629883,15.0490189L167.359375,200.251709l5.1378174,1.3766785
					c11.3542938,3.0423737,23.0229187-3.6960297,26.0648041-15.0485229L226.6346283,81.8113861z"/>
				<path style="clip-path:url(#SVGID_4_);fill:#CBDCE3;" d="M226.6346283,81.8113861l-2.3314209-0.6247025
					c-5.8085938-1.5564117-11.7782745,1.8901978-13.334198,7.6969757l-33.3509979,124.4676285
					c-0.3448944,1.2871704,0.4195404,2.6112061,1.7085266,2.9565887c5.806778,1.5559235,11.7764587-1.890686,13.3323822-7.6974487
					L226.6346283,81.8113861z"/>
			</g>
		</g>
	</g>
</g>
</svg>
